<svg width="48" height="32" viewBox="0 0 242 160" fill="none" xmlns="http://www.w3.org/2000/svg"><g clip-path="url(#clip0)"><path d="M0 15h242.13v130H0V15z" fill="#FFD331"/><path d="M84.386 79.996c-3.635 19.33-22.26 35.01-41.585 35.01s-32.06-15.68-28.405-35.01c3.645-19.33 22.25-35 41.6-35 19.315 0 32.03 15.67 28.39 35zM65.696 50.2c10.19 4.295 15.955 14.995 13.605 27.53a32.843 32.843 0 01-2.475 7.695.952.952 0 00-.105.175 36.426 36.426 0 01-4.46 7.265c-.085.095-.13.165-.2.245a1.98 1.98 0 01-.28.34 38.35 38.35 0 01-16.21 11.68 2.629 2.629 0 01-.48.17 3.02 3.02 0 01-.425.14.926.926 0 01-.175.08h-.035c-.08 0-.145-.08-.145-.165v-.185l.145-3.07c3.205-.68 6.1-2.125 8.185-4.11 1.985-1.855 4.24-5.16 3.815-10.355-.255-3.45-1.54-6.015-3.94-8.09-2.215-1.91-4.635-3.425-8.33-5.235l-.45-.22c-2.89-1.42-4.965-2.53-6.385-3.595-.93-.69-2.17-1.8-2.285-3.25a2.46 2.46 0 01.68-1.9c.78-.825 2.165-1.265 4.075-1.335h.03c1.88-.04 5.335.86 8.12 2.12.215.07.45.12.66.105 1.34-.115 2.52-1 3.37-2.485.555-.99.915-2.165 1.005-3.195a1.36 1.36 0 00-.495-1.145c-1.98-1.545-5.49-2.865-8.37-3.175-.065 0-.175-.055-.265-.14-.065-.075-.1-.13-.1-.13.01-.05.23-3.825.35-5.105a4.724 4.724 0 00-.105-1.595 1.27 1.27 0 00-.87-.865 1.165 1.165 0 00-.43-.06c-.04 0-.055 0-.065.01a36.22 36.22 0 00-12.57 3.46l-.015-.01c-11.145 5.31-20.075 15.93-22.38 28.175-2.595 13.775 3.955 25.495 15.385 29.9-10.185-4.295-15.965-15.005-13.61-27.51.52-2.735 1.4-5.375 2.555-7.865.035-.055.07-.105.085-.14a33.918 33.918 0 011.81-3.395 38.705 38.705 0 0117.23-15.18l-.01-.01a34.18 34.18 0 013.82-1.44.3.3 0 00.16-.065h.015c.1 0 .165.095.165.175v.145l-.22 2.08a15.336 15.336 0 00-7.345 3.565c-2.035 1.835-4.38 5.1-3.97 10.215.235 3.05 1.225 5.45 3.1 7.52 1.91 2.105 3.99 3.895 8.035 5.825l.215.105c3.53 1.65 5.875 2.74 7.36 3.76 1.775 1.235 2.165 2.165 2.295 3.33v.03a2.89 2.89 0 01-.915 2.34c-.855.835-2.27 1.3-4.125 1.345h-.03c-3.74.11-8.07-1.435-10.3-2.965-.01-.01-.04-.03-.05-.03-.02-.01-.03-.02-.045-.02a3.4 3.4 0 00-1.735-.56h-.06a2.32 2.32 0 00-1.55.66c-.434.4-.77.897-.98 1.45a7.39 7.39 0 00-.77 3.99c0 .29.06.575.115.82.062.336.25.637.525.84 3.405 2.305 6.87 3.625 10.295 3.925.094.01.18.056.24.13a.227.227 0 01.12.175c.01.04.15 1.105-.16 5.73a4.922 4.922 0 00.15 1.885c.055.2.135.375.285.52.245.26.565.4.91.435h.1c.08 0 .165-.025.245-.035a25.035 25.035 0 001.89-.26v.01a37.475 37.475 0 006.84-1.85c.03-.02.07-.035.115-.055a20.95 20.95 0 001.24-.51c.36-.15.74-.32 1.1-.48a.174.174 0 01.1-.035c11.32-5.255 20.45-15.98 22.77-28.36 2.6-13.795-3.965-25.51-15.39-29.915zm30.535 33.2c.105 4.52 3.06 7.71 7.865 7.71 2.61 0 4.745-.725 6.63-1.8l1.74 3.975c-2.575 1.67-5.86 2.45-8.985 2.45-9.225 0-13.18-6.515-13.18-13.855 0-7.975 4.41-13.78 11.56-13.78 7.195 0 11.325 5.36 11.325 13.905v1.39H96.231v.005zm11.04-4.135c-.11-3.36-1.735-6.635-5.47-6.635-3.525 0-5.57 3.06-5.635 6.635h11.105zm11.43-5.905h-2.875l-1.87-4.595h4.745v-3.96c0-6.305 3.68-9.15 8.47-9.15 1.62 0 3.46.33 5.09 1.065l-1.175 4.635a9.091 9.091 0 00-3.19-.68c-2.34 0-3.395 1.45-3.395 4.03v4.06h7.285l-1.925 4.595h-5.36v21.815h-5.8V73.36zm19.105 10.04c.115 4.52 3.075 7.71 7.88 7.71a13 13 0 006.635-1.8l1.725 3.975c-2.55 1.67-5.855 2.45-8.975 2.45-9.215 0-13.18-6.515-13.18-13.855 0-7.975 4.41-13.78 11.56-13.78 7.19 0 11.32 5.36 11.32 13.905v1.39h-16.965v.005zm11.05-4.135c-.115-3.36-1.73-6.635-5.48-6.635-3.5 0-5.575 3.06-5.63 6.635h11.11zm9.01 2.895c0-8.025 5.75-14.06 13.68-14.06 3.125 0 5.47.84 6.98 1.735V74.8a11.095 11.095 0 00-6.43-1.955c-5.135 0-8.27 3.9-8.27 9.16 0 5.745 3.135 8.985 7.94 8.985 2.57 0 4.395-.795 6.265-1.77l1.65 4.02c-2.005 1.39-5.245 2.495-8.685 2.495-8.44-.005-13.13-5.98-13.13-13.575zm64.455-13.395l-6.525 19.55h-.105s-4.935-11.765-6.585-15.68c-.405-.97-1.74-3.87-6.215-3.87h-11.49v-7.86l-5.81 1.79v6.07h-4.63v4.595h4.63v15.555c0 4.32 2.62 6.815 7.04 6.815 2.615 0 5.52-.78 7.36-2.05l-1.84-4.03a7.33 7.33 0 01-4.115 1.345c-1.745 0-2.63-.945-2.63-3.35v-14.28h11.875l9.78 21.765c-2.055 6.365-4.56 8.48-7.71 8.48a8.703 8.703 0 01-3.845-.95l-1.45 4.645c1.62.73 3.405 1.115 5.53 1.115 4.625 0 8.855-1.4 12.71-12.005l10.055-27.635h-6.03v-.015z" fill="#221E20"/></g><defs><clipPath id="clip0"><path fill="#fff" d="M0 0h242v160H0z"/></clipPath></defs></svg>