<svg width="33" height="32" viewBox="0 0 33 32" fill="none" xmlns="http://www.w3.org/2000/svg">
<path d="M16.8 2C22.8752 2 27.8 6.92487 27.8 13C27.8 15.4798 26.9794 17.768 25.595 19.6078L29.7329 24.3374L29.7855 24.4091C29.9511 24.6811 29.8168 25.0432 29.514 25.1416L29.4273 25.1616L25.1326 25.775L24.5182 30.0707L24.4996 30.1536C24.3931 30.4937 23.9622 30.6132 23.6957 30.3785L23.6328 30.3123L18.4813 23.8723C17.9331 23.9564 17.3717 24 16.8 24C16.1943 24 15.6 23.951 15.0209 23.8569L9.85714 30.3123C9.60179 30.6315 9.10576 30.5221 8.9904 30.1536L8.97173 30.0707L8.35804 25.775L4.06266 25.1616C3.70002 25.1098 3.52383 24.7058 3.70441 24.4091L3.75708 24.3374L7.95427 19.5397C6.60057 17.7117 5.80004 15.4493 5.80004 13C5.80004 6.92487 10.7249 2 16.8 2Z" fill="black"/>
<path d="M8.59508 20.3267L5.11621 24.3011L8.87092 24.8385C9.06341 24.866 9.21981 25.0018 9.27696 25.1826L9.29519 25.2627L9.79821 28.7851L13.929 23.6216C11.8393 23.0581 9.99588 21.8944 8.59508 20.3267ZM19.5802 23.6458L23.6928 28.7841L24.1951 25.2627L24.2133 25.1826C24.2623 25.0276 24.3842 24.9057 24.5393 24.8567L24.6194 24.8385L28.3738 24.3011L24.9492 20.3891C23.5349 21.9479 21.6795 23.0991 19.5802 23.6458Z" fill="#F85B5B"/>
<path d="M16.7998 3C11.277 3 6.7998 7.47715 6.7998 13C6.7998 18.5228 11.277 23 16.7998 23C22.3227 23 26.7998 18.5228 26.7998 13C26.7998 7.47715 22.3227 3 16.7998 3Z" fill="#FFCE45"/>
<path fill-rule="evenodd" clip-rule="evenodd" d="M17.0165 3.0022C19.0867 3.04609 21.0022 3.71911 22.5793 4.83777L10.2675 20.5712C8.77885 19.2856 7.67337 17.5683 7.14551 15.6139L17.0165 3.0022Z" fill="white"/>
<path d="M17.0426 7.07129C17.3503 6.88672 17.7352 7.07706 17.7926 7.41312L17.7999 7.50004V19.5C17.7999 19.7762 17.576 20 17.2999 20C17.0544 20 16.8503 19.8232 16.8079 19.5899L16.7999 19.5V8.38204L15.0571 9.42879C14.8466 9.55507 14.5806 9.50844 14.4243 9.33021L14.3711 9.25729C14.2448 9.04681 14.2915 8.78075 14.4697 8.62444L14.5426 8.57129L17.0426 7.07129Z" fill="black"/>
</svg>
