<svg width="33" height="32" viewBox="0 0 33 32" fill="none" xmlns="http://www.w3.org/2000/svg">
<path fill-rule="evenodd" clip-rule="evenodd" d="M8.60776 29.5C7.88655 29.5 7.2998 28.9268 7.2998 28.2223V18.3712C7.2998 17.2318 7.62596 16.1186 8.24296 15.1518L11.2998 11H14.2998L18.0581 15.0784C18.8589 16.0843 19.2998 17.3396 19.2998 18.6139V28.2223C19.2998 28.9268 18.7131 29.5 17.9919 29.5H8.60776Z" fill="#A0E1E9" stroke="#333333"/>
<path fill-rule="evenodd" clip-rule="evenodd" d="M11.2998 11H14.2998V8H11.2998V11Z" stroke="#333333"/>
<path fill-rule="evenodd" clip-rule="evenodd" d="M18.7998 5.5H21.7998V2.5H18.7998V5.5Z" stroke="#333333"/>
<path fill-rule="evenodd" clip-rule="evenodd" d="M11.2998 25H19.2998V19H11.2998V25Z" fill="white" stroke="#333333"/>
<path fill-rule="evenodd" clip-rule="evenodd" d="M26.7964 13.3396L26.7998 14L26.7966 13.3845C26.7857 11.2362 28.5691 9.48599 30.78 9.47536C30.7866 9.47529 30.7932 9.47529 30.7998 9.47529C28.5874 9.47529 26.7909 7.73829 26.7797 5.58851L26.7767 5V5.61091C26.7767 7.7451 24.9961 9.47529 22.7998 9.47529C24.9993 9.47529 26.7855 11.2022 26.7964 13.3396ZM22.7956 26.1928L22.7998 27L22.7959 26.2477C22.7821 23.6219 25.0114 21.4829 27.775 21.4699C27.7832 21.4698 27.7915 21.4698 27.7998 21.4698C25.0343 21.4698 22.7886 19.3468 22.7747 16.7193L22.7709 16V16.7467C22.7709 19.3552 20.5453 21.4698 17.7998 21.4698C20.5493 21.4698 22.7819 23.5806 22.7956 26.1928Z" stroke="#333333" stroke-linecap="round" stroke-linejoin="round"/>
<path fill-rule="evenodd" clip-rule="evenodd" d="M7.7998 8.5V7.73754C7.7998 4.84952 10.2811 2.5 13.3309 2.5H18.7998V5.5L16.0581 8.5H7.7998Z" fill="#A0E1E9" stroke="#333333"/>
</svg>
